Coordinates
version=1
nRows=6
nColumns=63
inDegrees=yes

Units are S.I. units (second, meters, Newtons, ...)
If the header above contains a line with 'inDegrees', this indicates whether rotational values are in degrees (yes) or radians (no).

endheader
time	pelvis_tilt	pelvis_list	pelvis_rotation	pelvis_tx	pelvis_ty	pelvis_tz	hip_flexion_r	hip_adduction_r	hip_rotation_r	knee_angle_r	knee_angle_r_beta	ankle_angle_r	subtalar_angle_r	mtp_angle_r	hip_flexion_l	hip_adduction_l	hip_rotation_l	knee_angle_l	knee_angle_l_beta	ankle_angle_l	subtalar_angle_l	mtp_angle_l	L5_S1_Flex_Ext	L5_S1_Lat_Bending	L5_S1_axial_rotation	L4_L5_Flex_Ext	L4_L5_Lat_Bending	L4_L5_axial_rotation	L3_L4_Flex_Ext	L3_L4_Lat_Bending	L3_L4_axial_rotation	L2_L3_Flex_Ext	L2_L3_Lat_Bending	L2_L3_axial_rotation	L1_L2_Flex_Ext	L1_L2_Lat_Bending	L1_L2_axial_rotation	L1_T12_Flex_Ext	L1_T12_Lat_Bending	L1_T12_axial_rotation	Abs_r3	Abs_r2	Abs_r1	Abs_t1	Abs_t2	neck_flexion	neck_bending	neck_rotation	arm_flex_r	arm_add_r	arm_rot_r	elbow_flex_r	pro_sup_r	wrist_flex_r	wrist_dev_r	arm_flex_l	arm_add_l	arm_rot_l	elbow_flex_l	pro_sup_l	wrist_flex_l	wrist_dev_l
      2.06666667	      1.05693674	     -8.48687350	     90.19388476	      0.23804014	      1.06364160	      0.39516853	     -1.22782110	     -1.54973270	      5.48637712	      9.97471405	      0.17409160	     30.83515851	     -0.02853725	      0.00000000	     -7.76620149	     -0.17988555	      3.93157330	      0.35886796	      0.00626343	     26.05957910	      0.92567758	      0.00000000	      0.09323821	      0.08265168	      0.76338250	      0.17315268	      0.10992673	      0.81109391	      0.15318105	      0.20095929	      0.81109391	      0.10656195	      0.20095929	      0.66795969	      0.08658100	      0.16854330	      0.62024828	      0.05327631	      0.12802745	      0.57253688	      0.66599120	      0.93497232	      4.24570445	      0.00000000	      0.00000000	     23.82972687	      4.95440784	     14.41464271	     13.68479811	    -11.72713264	     68.48956622	     40.40019008	     31.25875767	      8.47719268	     15.48492159	      7.66880771	    -12.19111707	     55.50646139	     42.81489899	     59.50281318	      3.33930019	     -7.02381551
      2.08333333	      1.04908521	     -8.50290576	     90.08319762	      0.23820858	      1.06367746	      0.39545660	     -1.16998213	     -1.46819767	      6.52044856	      9.91734981	      0.17309041	     30.60907941	     -1.41093801	      0.00000000	     -7.70084629	     -0.16131361	      5.52488523	      0.34666290	      0.00605041	     25.85388322	     -1.43229307	      0.00000000	      0.09191472	      0.08099365	      0.79516508	      0.17069482	      0.10772156	      0.84486290	      0.15100669	      0.19692797	      0.84486290	      0.10504933	      0.19692797	      0.69576944	      0.08535201	      0.16516226	      0.64607163	      0.05252007	      0.12545917	      0.59637381	      0.65653764	      0.91621640	      4.42246962	      0.00000000	      0.00000000	     23.78190158	      4.79629620	     14.15422009	     13.09851045	    -11.56432824	     67.24222258	     40.23691454	     32.17903495	      8.09649686	     14.88299943	      7.80459648	    -12.17832687	     56.33328406	     42.64840961	     60.23525117	      2.17253526	     -7.78806661
      2.10000000	      1.05965631	     -8.54608387	     89.99424246	      0.23807486	      1.06366888	      0.39587757	     -1.03032369	     -1.50893507	      6.06731047	      9.91555245	      0.17305904	     30.82392104	     -0.67076967	      0.00000000	     -7.59116095	     -0.15327339	      6.01552059	      0.34035807	      0.00594037	     25.93217615	     -2.20504891	      0.00000000	      0.09272094	      0.08713135	      0.80251476	      0.17219205	      0.11588469	      0.85267193	      0.15233122	      0.21185116	      0.85267193	      0.10597076	      0.21185116	      0.70220042	      0.08610066	      0.17767825	      0.65204324	      0.05298074	      0.13496646	      0.60188607	      0.66229637	      0.98564725	      4.46334634	      0.00000000	      0.00000000	     23.65672455	      4.62205317	     14.27483353	     11.98138643	    -11.30518511	     64.33203709	     40.18021512	     34.09665436	      7.82939946	     15.07258275	      7.73344757	    -12.00518269	     56.53264767	     42.36212547	     60.72963274	      1.49386871	     -8.63021112
      2.11666667	      1.07404511	     -8.57480180	     89.90101003	      0.23783484	      1.06358956	      0.39628296	     -0.91118768	     -1.54012214	      5.74803303	      9.89835725	      0.17275892	     30.96671243	     -0.16492792	      0.00000000	     -7.50657610	     -0.13968377	      6.05816403	      0.33496866	      0.00584631	     26.13031220	     -2.39314627	      0.00000000	      0.09304790	      0.09400816	      0.77899170	      0.17279925	      0.12503085	      0.82767868	      0.15286839	      0.22857143	      0.82767868	      0.10634444	      0.22857143	      0.68161774	      0.08640428	      0.19170143	      0.63293076	      0.05316757	      0.14561863	      0.58424377	      0.66463183	      1.06343907	      4.33251813	      0.00000000	      0.00000000	     23.51632004	      4.43535187	     14.38225024	     10.76555575	    -11.00726928	     61.44364781	     40.28939898	     35.38031470	      7.32356091	     14.96056217	      7.32145853	    -11.79207139	     55.83729570	     42.30251788	     60.87707912	      0.86575502	     -9.05289565
      2.13333333	      1.10696310	     -8.63568382	     89.83276364	      0.23740348	      1.06325836	      0.39667228	     -0.77309310	     -1.60753341	      4.99821741	      9.89507270	      0.17270160	     31.29821824	      1.02045427	      0.00000000	     -7.41401277	     -0.12673042	      6.74014901	      0.33278512	      0.00580820	     26.07779498	     -3.43330366	      0.00000000	      0.09261395	      0.10591050	      0.83489563	      0.17199336	      0.14086097	      0.88707661	      0.15215546	      0.25751079	      0.88707661	      0.10584848	      0.25751079	      0.73053368	      0.08600131	      0.21597269	      0.67835270	      0.05291961	      0.16405536	      0.62617173	      0.66153217	      1.19808076	      4.64343905	      0.00000000	      0.00000000	     23.51388523	      3.91685671	     14.20321871	      7.91251994	    -10.37204528	     53.05805692	     41.08319395	     42.89267897	      7.04751025	     16.72222348	      6.94972218	    -11.36662662	     54.52267926	     42.25664192	     63.70127254	      0.37850433	     -9.05844740
      2.15000000	      1.18551660	     -8.68908449	     89.85667238	      0.23667034	      1.06282869	      0.39719140	     -0.64953145	     -1.60648904	      4.52597387	      9.93986470	      0.17348337	     31.43297527	      1.61348394	      0.00000000	     -7.33529622	     -0.14806201	      7.15303451	      0.33588000	      0.00586221	     26.04422209	     -4.06104853	      0.00000000	      0.09245983	      0.12735387	      0.82821415	      0.17170715	      0.16938065	      0.87997753	      0.15190226	      0.30964820	      0.87997753	      0.10567234	      0.30964820	      0.72468738	      0.08585820	      0.25970001	      0.67292399	      0.05283155	      0.19727114	      0.62116061	      0.66043133	      1.44065243	      4.60627861	      0.00000000	      0.00000000	     23.43638895	      3.50295138	     14.34317516	      5.78287061	     -9.85051286	     47.11668509	     42.06638036	     47.44881150	      6.60410372	     18.10907275	      6.41496119	    -10.94878290	     52.85482081	     42.38908145	     65.48500845	      0.28617930	     -9.03141054
